<svg width="22" height="22" viewBox="0 0 22 22" fill="none" xmlns="http://www.w3.org/2000/svg">
<g clip-path="url(#clip0_154_896)">
<path d="M9.5394 5.09668L3.66663 11L9.5394 16.9034C9.59244 16.973 9.65983 17.0304 9.737 17.0718C9.81416 17.1131 9.89932 17.1374 9.98668 17.143C10.0741 17.1486 10.1616 17.1353 10.2434 17.1041C10.3252 17.0729 10.3993 17.0245 10.4608 16.9621C10.5223 16.8998 10.5696 16.825 10.5996 16.7427C10.6297 16.6605 10.6417 16.5728 10.6348 16.4855C10.628 16.3982 10.6025 16.3134 10.5601 16.2369C10.5176 16.1603 10.4592 16.0937 10.3888 16.0417L5.99496 11.6111H17.6855C17.8476 11.6111 18.003 11.5467 18.1176 11.4321C18.2322 11.3175 18.2966 11.1621 18.2966 11C18.2966 10.8379 18.2322 10.6825 18.1176 10.5679C18.003 10.4533 17.8476 10.3889 17.6855 10.3889H5.99496L10.3888 5.95835C10.5031 5.84328 10.567 5.68752 10.5664 5.52536C10.5658 5.36319 10.5009 5.20789 10.3858 5.09363C10.2707 4.97936 10.115 4.91549 9.9528 4.91607C9.79063 4.91664 9.63533 4.98161 9.52107 5.09668H9.5394Z" fill="black"/>
</g>
<defs>
<clipPath id="clip0_154_896">
<rect width="22" height="22" fill="white" transform="matrix(0 -1 1 0 0 22)"/>
</clipPath>
</defs>
</svg>
