<svg width="20" height="18" viewBox="0 0 20 18" fill="none" xmlns="http://www.w3.org/2000/svg">
<path d="M0.833313 3.5H4.49998M0.833313 9.91667H4.49998M0.833313 17.25H18.25M16.7833 10.2833L19.1666 12.6667M17.975 6.1125C17.975 5.40829 17.8363 4.71097 17.5668 4.06036C17.2973 3.40975 16.9023 2.81859 16.4043 2.32064C15.9064 1.82269 15.3152 1.42769 14.6646 1.1582C14.014 0.888705 13.3167 0.75 12.6125 0.75C11.9083 0.75 11.2109 0.888705 10.5603 1.1582C9.90973 1.42769 9.31857 1.82269 8.82062 2.32064C8.32267 2.81859 7.92767 3.40975 7.65818 4.06036C7.38869 4.71097 7.24998 5.40829 7.24998 6.1125C7.24998 7.53472 7.81496 8.8987 8.82062 9.90436C9.82628 10.91 11.1903 11.475 12.6125 11.475C14.0347 11.475 15.3987 10.91 16.4043 9.90436C17.41 8.8987 17.975 7.53472 17.975 6.1125Z" stroke="black" stroke-width="1.5" stroke-linecap="round" stroke-linejoin="round"/>
</svg>
