<svg width="24" height="24" viewBox="0 0 24 24" fill="none" xmlns="http://www.w3.org/2000/svg">
<path d="M19.75 10C19.75 9.8011 19.671 9.61033 19.5304 9.46968C19.3897 9.32903 19.1989 9.25001 19 9.25001C18.8011 9.25001 18.6104 9.32903 18.4697 9.46968C18.3291 9.61033 18.25 9.8011 18.25 10H19.75ZM5.75003 10C5.75003 9.8011 5.67101 9.61033 5.53036 9.46968C5.38971 9.32903 5.19894 9.25001 5.00003 9.25001C4.80112 9.25001 4.61035 9.32903 4.4697 9.46968C4.32905 9.61033 4.25003 9.8011 4.25003 10H5.75003ZM20.47 12.53C20.5387 12.6037 20.6215 12.6628 20.7135 12.7038C20.8055 12.7448 20.9048 12.7668 21.0055 12.7686C21.1062 12.7704 21.2062 12.7519 21.2996 12.7141C21.393 12.6764 21.4779 12.6203 21.5491 12.549C21.6203 12.4778 21.6764 12.393 21.7142 12.2996C21.7519 12.2062 21.7704 12.1062 21.7686 12.0055C21.7668 11.9048 21.7448 11.8055 21.7038 11.7135C21.6628 11.6215 21.6037 11.5387 21.53 11.47L20.47 12.53ZM12 3.00001L12.53 2.47001C12.3894 2.32956 12.1988 2.25067 12 2.25067C11.8013 2.25067 11.6107 2.32956 11.47 2.47001L12 3.00001ZM2.47003 11.47C2.39634 11.5387 2.33724 11.6215 2.29625 11.7135C2.25526 11.8055 2.23322 11.9048 2.23144 12.0055C2.22966 12.1062 2.24819 12.2062 2.28591 12.2996C2.32363 12.393 2.37977 12.4778 2.45099 12.549C2.52221 12.6203 2.60705 12.6764 2.70043 12.7141C2.79382 12.7519 2.89385 12.7704 2.99455 12.7686C3.09526 12.7668 3.19457 12.7448 3.28657 12.7038C3.37857 12.6628 3.46137 12.6037 3.53003 12.53L2.47003 11.47ZM7.00003 21.75H17V20.25H7.00003V21.75ZM19.75 19V10H18.25V19H19.75ZM5.75003 19V10H4.25003V19H5.75003ZM21.53 11.47L12.53 2.47001L11.47 3.53001L20.47 12.53L21.53 11.47ZM11.47 2.47001L2.47003 11.47L3.53003 12.53L12.53 3.53001L11.47 2.47001ZM17 21.75C17.7294 21.75 18.4289 21.4603 18.9446 20.9446C19.4603 20.4288 19.75 19.7294 19.75 19H18.25C18.25 19.69 17.69 20.25 17 20.25V21.75ZM7.00003 20.25C6.31003 20.25 5.75003 19.69 5.75003 19H4.25003C4.25003 19.7294 4.53976 20.4288 5.05549 20.9446C5.57121 21.4603 6.27069 21.75 7.00003 21.75V20.25Z" fill="black"/>
</svg>
