<svg width="32" height="32" viewBox="0 0 32 32" fill="none" xmlns="http://www.w3.org/2000/svg">
<path d="M4 7C4 6.20435 4.31607 5.44129 4.87868 4.87868C5.44129 4.31607 6.20435 4 7 4H9C9.26522 4 9.51957 3.89464 9.70711 3.70711C9.89464 3.51957 10 3.26522 10 3C10 2.73478 9.89464 2.48043 9.70711 2.29289C9.51957 2.10536 9.26522 2 9 2H7C5.67392 2 4.40215 2.52678 3.46447 3.46447C2.52678 4.40215 2 5.67392 2 7V9C2 9.26522 2.10536 9.51957 2.29289 9.70711C2.48043 9.89464 2.73478 10 3 10C3.26522 10 3.51957 9.89464 3.70711 9.70711C3.89464 9.51957 4 9.26522 4 9V7ZM6.322 27.924C6.542 27.9747 6.768 28 7 28H9C9.26522 28 9.51957 28.1054 9.70711 28.2929C9.89464 28.4804 10 28.7348 10 29C10 29.2652 9.89464 29.5196 9.70711 29.7071C9.51957 29.8946 9.26522 30 9 30H7C5.67392 30 4.40215 29.4732 3.46447 28.5355C2.52678 27.5979 2 26.3261 2 25V23C2 22.7348 2.10536 22.4804 2.29289 22.2929C2.48043 22.1054 2.73478 22 3 22C3.26522 22 3.51957 22.1054 3.70711 22.2929C3.89464 22.4804 4 22.7348 4 23V25C3.99963 25.6781 4.22899 26.3363 4.65067 26.8673C5.07235 27.3983 5.66147 27.7708 6.322 27.924ZM25 4C25.7956 4 26.5587 4.31607 27.1213 4.87868C27.6839 5.44129 28 6.20435 28 7V9C28 9.26522 28.1054 9.51957 28.2929 9.70711C28.4804 9.89464 28.7348 10 29 10C29.2652 10 29.5196 9.89464 29.7071 9.70711C29.8946 9.51957 30 9.26522 30 9V7C30 5.67392 29.4732 4.40215 28.5355 3.46447C27.5979 2.52678 26.3261 2 25 2H23C22.7348 2 22.4804 2.10536 22.2929 2.29289C22.1054 2.48043 22 2.73478 22 3C22 3.26522 22.1054 3.51957 22.2929 3.70711C22.4804 3.89464 22.7348 4 23 4H25ZM25.678 27.924C25.4556 27.975 25.2282 28.0005 25 28H23C22.7348 28 22.4804 28.1054 22.2929 28.2929C22.1054 28.4804 22 28.7348 22 29C22 29.2652 22.1054 29.5196 22.2929 29.7071C22.4804 29.8946 22.7348 30 23 30H25C26.3261 30 27.5979 29.4732 28.5355 28.5355C29.4732 27.5979 30 26.3261 30 25V23C30 22.7348 29.8946 22.4804 29.7071 22.2929C29.5196 22.1054 29.2652 22 29 22C28.7348 22 28.4804 22.1054 28.2929 22.2929C28.1054 22.4804 28 22.7348 28 23V25C28.0004 25.6781 27.771 26.3363 27.3493 26.8673C26.9277 27.3983 26.3385 27.7708 25.678 27.924ZM7 26C6.73478 26 6.48043 25.8946 6.29289 25.7071C6.10536 25.5196 6 25.2652 6 25C6 24.2044 6.31607 23.4413 6.87868 22.8787C7.44129 22.3161 8.20435 22 9 22H23C23.7956 22 24.5587 22.3161 25.1213 22.8787C25.6839 23.4413 26 24.2044 26 25C26 25.2652 25.8946 25.5196 25.7071 25.7071C25.5196 25.8946 25.2652 26 25 26H24V25C24 24.7348 23.8946 24.4804 23.7071 24.2929C23.5196 24.1054 23.2652 24 23 24H9C8.73478 24 8.48043 24.1054 8.29289 24.2929C8.10536 24.4804 8 24.7348 8 25V26H7ZM21.5 13.5C21.5 12.0413 20.9205 10.6424 19.8891 9.61091C18.8576 8.57946 17.4587 8 16 8C14.5413 8 13.1424 8.57946 12.1109 9.61091C11.0795 10.6424 10.5 12.0413 10.5 13.5C10.5 14.9587 11.0795 16.3576 12.1109 17.3891C13.1424 18.4205 14.5413 19 16 19C17.4587 19 18.8576 18.4205 19.8891 17.3891C20.9205 16.3576 21.5 14.9587 21.5 13.5ZM12.5 13.5C12.5 12.5717 12.8687 11.6815 13.5251 11.0251C14.1815 10.3687 15.0717 10 16 10C16.9283 10 17.8185 10.3687 18.4749 11.0251C19.1313 11.6815 19.5 12.5717 19.5 13.5C19.5 14.4283 19.1313 15.3185 18.4749 15.9749C17.8185 16.6313 16.9283 17 16 17C15.0717 17 14.1815 16.6313 13.5251 15.9749C12.8687 15.3185 12.5 14.4283 12.5 13.5Z" fill="black"/>
</svg>
