<svg width="16" height="16" viewBox="0 0 16 16" fill="none" xmlns="http://www.w3.org/2000/svg">
<g clip-path="url(#clip0_11_42)">
<path d="M10.878 0.281996L11.226 1.353C11.3339 1.67875 11.5165 1.97475 11.7593 2.21732C12.002 2.45989 12.2982 2.64231 12.624 2.75L13.696 3.098L13.717 3.104C13.7996 3.13307 13.8711 3.18707 13.9217 3.25854C13.9724 3.33001 13.9995 3.41542 13.9995 3.503C13.9995 3.59057 13.9724 3.67598 13.9217 3.74745C13.8711 3.81892 13.7996 3.87292 13.717 3.902L12.646 4.25C12.32 4.35755 12.0237 4.53991 11.7807 4.78249C11.5378 5.02507 11.355 5.32113 11.247 5.647L10.899 6.717C10.8699 6.7996 10.8159 6.87114 10.7444 6.92175C10.673 6.97236 10.5876 6.99954 10.5 6.99954C10.4124 6.99954 10.327 6.97236 10.2555 6.92175C10.1841 6.87114 10.1301 6.7996 10.101 6.717L9.75299 5.647C9.64577 5.32002 9.46335 5.02276 9.22037 4.77909C8.9774 4.53542 8.68066 4.35215 8.35399 4.244L7.28199 3.896C7.19939 3.86692 7.12785 3.81292 7.07724 3.74145C7.02663 3.66998 6.99945 3.58457 6.99945 3.497C6.99945 3.40942 7.02663 3.32401 7.07724 3.25254C7.12785 3.18107 7.19939 3.12707 7.28199 3.098L8.35399 2.75C8.67594 2.63953 8.96787 2.45587 9.20681 2.21346C9.44575 1.97105 9.62518 1.6765 9.73099 1.353L10.079 0.282996C10.1079 0.200044 10.1618 0.128136 10.2334 0.0772498C10.305 0.0263636 10.3907 -0.000976563 10.4785 -0.000976562C10.5663 -0.000976562 10.652 0.0263636 10.7236 0.0772498C10.7952 0.128136 10.8491 0.199044 10.878 0.281996ZM15.783 8.21399L15.018 7.966C14.7852 7.88855 14.5736 7.75796 14.4 7.58456C14.2265 7.41116 14.0957 7.19972 14.018 6.967L13.77 6.203C13.7493 6.14393 13.7107 6.09275 13.6597 6.05655C13.6086 6.02034 13.5476 6.00089 13.485 6.00089C13.4224 6.00089 13.3614 6.02034 13.3103 6.05655C13.2592 6.09275 13.2207 6.14393 13.2 6.203L12.95 6.967C12.874 7.19791 12.7458 7.40818 12.5753 7.58145C12.4048 7.75472 12.1967 7.88632 11.967 7.966L11.202 8.21399C11.1434 8.23515 11.0927 8.27387 11.0569 8.32487C11.0211 8.37587 11.0019 8.43668 11.0019 8.49899C11.0019 8.56131 11.0211 8.62212 11.0569 8.67312C11.0927 8.72412 11.1434 8.76284 11.202 8.784L11.967 9.033C12.2001 9.11074 12.4119 9.24179 12.5855 9.41573C12.7591 9.58968 12.8897 9.80171 12.967 10.035L13.215 10.799C13.2357 10.8581 13.2742 10.9092 13.3253 10.9454C13.3764 10.9817 13.4374 11.0011 13.5 11.0011C13.5626 11.0011 13.6236 10.9817 13.6747 10.9454C13.7257 10.9092 13.7643 10.8581 13.785 10.799L14.034 10.035C14.1116 9.80238 14.2422 9.59101 14.4156 9.41762C14.589 9.24422 14.8004 9.11357 15.033 9.036L15.798 8.788C15.8566 8.76684 15.9073 8.72812 15.9431 8.67712C15.9789 8.62612 15.9981 8.56531 15.9981 8.503C15.9981 8.44068 15.9789 8.37987 15.9431 8.32887C15.9073 8.27787 15.8566 8.23915 15.798 8.218L15.783 8.21399ZM6.49999 2C6.75266 2 6.99933 2.02 7.23999 2.06L6.94999 2.154C6.66999 2.254 6.42999 2.434 6.25999 2.674C6.07972 2.92623 5.98827 3.23118 5.99999 3.541C5.47556 3.62993 4.9842 3.85669 4.57627 4.19806C4.16834 4.53943 3.8585 4.98312 3.67852 5.48366C3.49853 5.9842 3.45486 6.5236 3.552 7.04658C3.64913 7.56956 3.88356 8.05731 4.23127 8.45984C4.57898 8.86238 5.02747 9.16523 5.53077 9.33736C6.03407 9.50948 6.57409 9.5447 7.09548 9.43939C7.61687 9.33409 8.10089 9.09204 8.49793 8.73807C8.89498 8.3841 9.19077 7.93093 9.35499 7.425C9.43766 7.53566 9.54366 7.64166 9.67299 7.743C9.81299 7.843 9.96299 7.913 10.123 7.953C10.043 8.123 10.003 8.314 10.003 8.50399C10.003 8.774 10.083 9.035 10.243 9.25599C10.369 9.42599 10.528 9.56066 10.72 9.66L12.33 11.27C12.43 11.468 12.572 11.6347 12.756 11.77C12.812 11.808 12.8703 11.8413 12.931 11.87L13.781 12.72C13.9175 12.8615 13.9931 13.051 13.9913 13.2476C13.9895 13.4443 13.9105 13.6324 13.7714 13.7714C13.6322 13.9103 13.4441 13.9891 13.2474 13.9908C13.0508 13.9924 12.8614 13.9167 12.72 13.78L9.10699 10.168C8.52977 10.5782 7.86387 10.8465 7.16345 10.9508C6.46303 11.0552 5.74786 10.9928 5.0761 10.7687C4.40434 10.5446 3.79494 10.1652 3.29748 9.66117C2.80001 9.15718 2.42851 8.54289 2.21319 7.86827C1.99786 7.19364 1.9448 6.47772 2.0583 5.77872C2.17181 5.07972 2.44868 4.41737 2.86641 3.84554C3.28413 3.27371 3.83092 2.80854 4.4623 2.48785C5.09368 2.16717 5.79184 2.00002 6.49999 2Z" fill="black"/>
</g>
<defs>
<clipPath id="clip0_11_42">
<rect width="16" height="16" fill="white"/>
</clipPath>
</defs>
</svg>
