<svg width="24" height="24" viewBox="0 0 24 24" fill="none" xmlns="http://www.w3.org/2000/svg">
<path d="M12 4.5C11.348 4.5 10.792 4.916 10.585 5.5C10.5534 5.59436 10.5033 5.68148 10.4376 5.75629C10.372 5.83109 10.2921 5.89208 10.2026 5.93571C10.1132 5.97933 10.0159 6.00471 9.91658 6.01037C9.81721 6.01603 9.71771 6.00186 9.62388 5.96868C9.53005 5.9355 9.44376 5.88398 9.37004 5.81711C9.29632 5.75025 9.23665 5.66938 9.1945 5.57922C9.15235 5.48906 9.12856 5.39141 9.12453 5.29197C9.1205 5.19253 9.1363 5.09327 9.17101 5C9.32784 4.55656 9.58674 4.15621 9.92681 3.83126C10.2669 3.50632 10.6786 3.26589 11.1287 3.12939C11.5788 2.99288 12.0547 2.96413 12.518 3.04545C12.9813 3.12677 13.4189 3.31588 13.7957 3.59751C14.1724 3.87915 14.4776 4.24542 14.6867 4.66675C14.8957 5.08809 15.0028 5.55268 14.9993 6.02302C14.9957 6.49336 14.8816 6.95628 14.6661 7.37439C14.4507 7.79251 14.14 8.15411 13.759 8.43C13.458 8.649 13.191 8.868 13.002 9.097C12.816 9.323 12.75 9.504 12.75 9.66C12.7501 9.77887 12.7823 9.89552 12.8432 9.99761C12.9041 10.0997 12.9915 10.1834 13.096 10.24L20.703 14.352C21.1869 14.6138 21.5696 15.0295 21.7907 15.5333C22.0118 16.0371 22.0585 16.6002 21.9236 17.1336C21.7886 17.6669 21.4797 18.1401 21.0456 18.4781C20.6116 18.8161 20.0772 18.9998 19.527 19H4.47301C3.92285 18.9998 3.38847 18.8161 2.95441 18.4781C2.52035 18.1401 2.21141 17.6669 2.07646 17.1336C1.94152 16.6002 1.98828 16.0371 2.20934 15.5333C2.4304 15.0295 2.81315 14.6138 3.29701 14.352L9.39701 11.054C9.48369 11.0072 9.57873 10.9779 9.67672 10.9678C9.77471 10.9577 9.87373 10.967 9.96812 10.9952C10.0625 11.0234 10.1504 11.0699 10.2268 11.1321C10.3033 11.1942 10.3667 11.2708 10.4135 11.3575C10.4603 11.4442 10.4896 11.5392 10.4997 11.6372C10.5098 11.7352 10.5005 11.8342 10.4723 11.9286C10.4441 12.023 10.3976 12.1109 10.3354 12.1873C10.2733 12.2638 10.1967 12.3272 10.11 12.374L4.01001 15.671C3.81948 15.774 3.66875 15.9375 3.58169 16.1358C3.49463 16.3342 3.47621 16.5558 3.52936 16.7658C3.58251 16.9757 3.70418 17.1619 3.87511 17.2949C4.04603 17.4279 4.25644 17.5001 4.47301 17.5H19.527C19.7436 17.5001 19.954 17.4279 20.1249 17.2949C20.2958 17.1619 20.4175 16.9757 20.4707 16.7658C20.5238 16.5558 20.5054 16.3342 20.4183 16.1358C20.3313 15.9375 20.1805 15.774 19.99 15.671L12.383 11.559C12.0404 11.3738 11.7543 11.0995 11.5548 10.7651C11.3554 10.4306 11.2501 10.0484 11.25 9.659C11.25 9.036 11.528 8.528 11.844 8.144C12.158 7.764 12.551 7.454 12.879 7.216C13.1362 7.03028 13.3278 6.76783 13.4264 6.46636C13.525 6.16488 13.5255 5.83991 13.4279 5.53813C13.3302 5.23635 13.1394 4.97329 12.8828 4.78677C12.6263 4.60024 12.3172 4.49984 12 4.5Z" fill="black"/>
</svg>
